<?xml version="1.0" encoding="UTF-8" standalone="no"?>
<svg
   xmlns:dc="http://purl.org/dc/elements/1.1/"
   xmlns:cc="http://creativecommons.org/ns#"
   xmlns:rdf="http://www.w3.org/1999/02/22-rdf-syntax-ns#"
   xmlns:svg="http://www.w3.org/2000/svg"
   xmlns="http://www.w3.org/2000/svg"
   xmlns:sodipodi="http://sodipodi.sourceforge.net/DTD/sodipodi-0.dtd"
   xmlns:inkscape="http://www.inkscape.org/namespaces/inkscape"
   width="960pt"
   height="480pt"
   viewBox="0 0 338.66666 169.33334"
   version="1.1"
   id="svg16"
   inkscape:version="1.0 (unknown)"
   sodipodi:docname="logo.svg"
   inkscape:export-filename="/tmp/bitmap.png"
   inkscape:export-xdpi="96"
   inkscape:export-ydpi="96">
  <defs
     id="defs10">
    <rect
       id="rect35"
       height="45.861111"
       width="156.98611"
       y="98.777778"
       x="158.75" />
  </defs>
  <sodipodi:namedview
     id="base"
     pagecolor="#ffffff"
     bordercolor="#666666"
     borderopacity="1.0"
     inkscape:pageopacity="0.0"
     inkscape:pageshadow="2"
     inkscape:zoom="1.4"
     inkscape:cx="851.63946"
     inkscape:cy="248.66966"
     inkscape:document-units="pt"
     inkscape:current-layer="layer1"
     inkscape:document-rotation="0"
     showgrid="true"
     units="pt"
     inkscape:pagecheckerboard="true"
     borderlayer="false"
     showguides="true"
     fit-margin-top="40"
     lock-margins="true"
     fit-margin-left="40"
     fit-margin-right="40"
     fit-margin-bottom="40"
     inkscape:guide-bbox="true"
     inkscape:window-width="2560"
     inkscape:window-height="1411"
     inkscape:window-x="2560"
     inkscape:window-y="0"
     inkscape:window-maximized="1">
    <inkscape:grid
       type="xygrid"
       id="grid18"
       units="pt"
       spacingx="0.35277778"
       spacingy="0.35277778"
       dotted="false" />
    <sodipodi:guide
       position="23.080657,151.68269"
       orientation="0,-1"
       id="guide84" />
    <sodipodi:guide
       position="17.638889,144.63889"
       orientation="1,0"
       id="guide86" />
    <sodipodi:guide
       position="17.638888,19.402779"
       orientation="0,-1"
       id="guide88" />
    <sodipodi:guide
       position="321.02777,21.166668"
       orientation="1,0"
       id="guide90" />
    <sodipodi:guide
       id="guide27"
       orientation="0,-1"
       position="29.98611,74.083337" />
    <sodipodi:guide
       id="guide29"
       orientation="0,-1"
       position="24.694444,19.40278" />
    <sodipodi:guide
       id="guide31"
       orientation="1,0"
       position="153.45833,93.486115" />
    <sodipodi:guide
       id="guide39"
       orientation="0,-1"
       position="10.583333,33.513891" />
  </sodipodi:namedview>
  <metadata
     id="metadata13">
    <rdf:RDF>
      <cc:Work
         rdf:about="">
        <dc:format>image/svg+xml</dc:format>
        <dc:type
           rdf:resource="http://purl.org/dc/dcmitype/StillImage" />
        <dc:title></dc:title>
      </cc:Work>
    </rdf:RDF>
  </metadata>
  <g
     inkscape:label="Layer 1"
     inkscape:groupmode="layer"
     id="layer1">
    <path
       id="path4"
       d="m 148.91241,31.977523 4.04166,-10.32745 -0.17417,-0.638274 -39.97449,10.465918 c 4.2605,-6.090933 2.79567,-10.963556 2.79567,-10.963556 0,0 -12.76363,8.067991 -22.418951,7.871634 C 83.526797,28.193851 80.418513,25.658828 65.613969,30.344019 50.809433,35.029201 46.62932,49.320813 42.337573,52.399271 38.045817,55.47772 24.581053,65.502644 24.581053,65.502644 l 0.03125,0.18052 12.138385,-3.834194 c 0,0 -3.327112,3.102938 -10.401136,12.515992 0,0 -0.125045,-0.10986 -0.330485,-0.303229 l 0.0093,0.06602 c 0,0 5.685118,8.559337 11.263055,6.958145 0.558248,-0.159687 1.192405,-0.425216 1.884626,-0.77456 2.246362,1.228681 5.176006,2.438373 8.413796,2.762168 0,0 -2.192763,-2.50604 -4.019325,-5.360758 0.495711,-0.313698 1.000368,-0.640641 1.513944,-0.971996 l -0.23669,0.167843 4.622232,1.664324 -0.509121,-4.28437 c 0.01339,-0.0092 0.03125,-0.01767 0.04464,-0.0265 l 4.541848,1.63365 -0.567175,-3.896672 c 0.576104,-0.29625 1.152208,-0.579284 1.723848,-0.844696 L 59.437931,53.47909 79.016542,40.266336 77.4624,44.132052 C 73.501125,53.76346 66.043032,56.055516 66.043032,56.055516 l -3.112754,1.169008 c -2.313344,2.700107 -3.286916,3.36712 -4.081852,12.423984 1.866759,-0.466218 3.64866,-0.579912 5.260864,-0.155946 8.369144,2.202908 11.263059,12.142017 9.01223,14.89925 -0.562702,0.688208 -1.906947,1.871265 -3.603999,3.253233 l -3.394095,0.0068 -0.04464,2.713155 c -0.116117,0.0883 -0.232224,0.181041 -0.348342,0.269357 l -3.452164,0.007 -0.04464,2.647086 c -0.308146,0.229642 -0.607363,0.454864 -0.90658,0.675683 -3.246728,0.07258 -7.355385,-2.71144 -7.355385,-2.71144 0,2.536884 2.143647,6.447998 2.143647,6.447998 0,0 0.138448,-0.06626 0.379601,-0.181345 -0.209894,0.150172 -0.326012,0.234086 -0.326012,0.234086 0,0 8.690692,5.694885 14.16145,3.569795 4.863391,-1.890455 17.457298,-11.71102 28.327368,-16.366261 l 32.896001,-8.615061 4.33642,-11.08999 -25.06723,6.564487 V 61.86265 l 29.41257,-7.70076 4.33642,-11.089981 -33.74454,8.836987 v -9.95374 z m -59.704961,21.221371 7.80644,-2.046116 0.10272,0.382963 -2.43393,6.228202 -8.09226,2.117163 z m 2.69742,13.308796 -8.092254,2.117172 2.617034,-6.686615 7.80644,-2.046123 0.10271,0.382971 z m 10.539581,-2.254219 -8.092261,2.117161 2.61704,-6.686613 7.806441,-2.046116 0.10272,0.382963 z"
       style="stroke-width:0.0443501" />
    <g
       id="g20"
       transform="matrix(0.04465925,0,0,0.04465925,17.764839,1.7230845)">
      <path
         id="path6"
         d="m 146,2372.6 5.3,-26.5 c 14.6,-76.8 43.7,-143.1 98.1,-193.4 39.7,-37.1 98,-59.6 164.3,-59.6 42.4,0 74.2,6.6 94.1,13.2 l -37.1,127.2 c -15.9,-5.3 -30.5,-7.9 -51.7,-7.9 -59.6,0 -94.1,62.3 -104.7,119.2 l -5.3,27.8 h 125.9 l -22.5,116.6 H 289.1 l -102,531.3 H 21.5 l 102,-531.3" />
      <path
         id="path8"
         d="m 687.9,3020.5 c 1.3,-34.4 4,-70.2 5.3,-108.6 h -4 c -51.7,86.1 -113.9,119.3 -165.6,119.3 -94.1,0 -140.4,-80.8 -140.4,-194.8 0,-196.1 98,-474.3 376.3,-474.3 64.9,0 129.8,10.6 169.6,26.5 L 857.6,2749 c -15.9,75.5 -27.8,201.4 -26.5,271.6 H 687.9 Z m 59.6,-531.3 c -13.2,-2.7 -25.2,-4 -34.4,-4 -108.6,0 -166.9,216 -168.3,311.3 0,57 8,98 49,98 45,0 87.4,-74.2 111.3,-192.1 z" />
      <path
         id="path10"
         d="m 948.9,2878.7 c 26.5,14.6 58.3,27.8 104.7,26.5 47.7,-1.3 74.2,-31.8 74.2,-72.9 0,-35.8 -17.2,-60.9 -62.3,-96.7 -55.6,-45 -82.1,-102 -82.1,-157.7 0,-119.3 92.7,-215.9 239.8,-215.9 57,0 98,10.6 121.9,23.8 l -35.8,120.6 c -18.5,-10.6 -49,-19.9 -76.8,-19.9 -53,0 -86.1,27.8 -86.1,71.5 0,33.1 18.5,53 49,78.2 72.9,55.7 96.7,119.2 96.7,169.6 0,143.1 -99.4,222.6 -247.8,222.6 -59.6,0 -112.6,-17.2 -135.1,-33.1 z" />
      <path
         id="path12"
         d="m 1680.2,2197.7 -33.1,174.9 h 254.4 l -21.2,116.6 h -255.7 l -57,300.7 c -4,22.5 -5.3,42.4 -5.3,54.3 0,39.7 19.9,54.3 50.4,54.3 11.9,0 29.2,0 45,-2.7 l -19.9,124.5 c -30.5,8 -67.6,10.6 -99.4,10.6 -99.3,0 -148.4,-55.7 -148.4,-143.1 0,-29.1 5.3,-64.9 11.9,-96.7 l 57,-302.1 h -75.5 l 22.5,-116.6 h 75.5 l 26.5,-133.8 z" />
      <path
         id="path14"
         d="m 1720,3020.5 124.5,-647.9 h 165.6 l -124.5,647.9 z M 1875,2207 c 0,-47.7 34.4,-102 92.7,-102 54.3,0 79.5,41.1 78.2,86.1 -1.3,66.2 -46.4,103.3 -95.4,103.3 -53,0 -76.9,-38.4 -75.5,-87.4 z" />
      <path
         id="path16"
         d="m 2113,2372.6 5.3,-26.5 c 14.6,-76.8 43.7,-143.1 98.1,-193.4 39.7,-37.1 98,-59.6 164.3,-59.6 42.4,0 74.2,6.6 94.1,13.2 l -37.1,127.2 c -15.9,-5.3 -30.5,-7.9 -51.7,-7.9 -59.6,0 -94.1,62.3 -104.7,119.2 l -5.3,27.8 h 192.1 l -22.5,116.6 h -189.5 l -102,531.3 h -165.6 l 102,-531.3" />
      <path
         id="path18"
         d="m 2571.4,2372.6 4,311.3 c 1.3,60.9 2.7,106 1.3,153.7 h 2.7 c 13.2,-53 26.5,-96.7 49,-165.6 l 98.1,-299.4 h 166.9 l -212,510.1 c -63.6,148.4 -136.5,272.9 -216,345.8 -38.4,35.8 -83.5,63.6 -111.3,75.5 l -66.2,-135.1 c 29.1,-14.6 59.6,-31.8 86.1,-53 37.1,-30.5 72.9,-67.6 88.8,-103.4 2.6,-9.3 5.3,-15.9 4,-29.1 l -68.9,-610.8 z" />
    </g>
    <rect
       style="stroke-width:0.41154"
       y="17.638889"
       x="153.45834"
       height="132.29167"
       width="167.56944"
       id="rect25" />
    <text
       transform="translate(1.6227955,-0.43456938)"
       y="0"
       x="63.563068"
       style="font-style:normal;font-weight:normal;font-size:38.8056px;line-height:1.25;font-family:sans-serif;letter-spacing:0px;word-spacing:0px;white-space:pre;shape-inside:url(#rect35);fill:#000000;fill-opacity:1;stroke:none;"
       id="text33"
       xml:space="preserve"><tspan
         x="173.74248"
         y="133.73166"><tspan
           style="font-style:normal;font-variant:normal;font-weight:bold;font-stretch:normal;font-size:35.2778px;font-family:'Nimbus Mono L';-inkscape-font-specification:'Nimbus Mono L Bold';text-align:center;text-anchor:middle;fill:#ffffff">Status</tspan></tspan></text>
    <circle
       r="0.024976548"
       cy="117.78571"
       cx="207.33835"
       style="fill:#ff0000;stroke:#000000;stroke-width:0.264583"
       id="path179" />
    <circle
       r="0.024976548"
       cy="82.521072"
       cx="191.00427"
       style="fill:#ff0000;stroke:#000000;stroke-width:0.264583"
       id="path181" />
    <g
       style="fill:#ffffff"
       transform="matrix(0.012383,0,0,-0.012383,158.61101,99.142864)"
       fill="#000000"
       stroke="none"
       id="g6">
      <path
         style="fill:#ffffff"
         d="m 7505,6524 c -347,-49 -496,-100 -830,-284 -221,-122 -345,-173 -466,-193 -87,-15 -103,-15 -184,-1 -115,20 -234,70 -449,188 -258,143 -377,189 -617,242 -169,36 -479,46 -657,19 -333,-50 -703,-227 -941,-451 -175,-165 -356,-466 -459,-764 -168,-489 -161,-995 23,-1592 30,-97 55,-179 55,-182 0,-3 -40,-6 -89,-6 h -89 l -92,96 -92,97 -89,-5 c -49,-3 -89,-3 -89,1 0,30 -78,680 -106,876 -36,259 -64,375 -108,442 -14,21 -28,50 -31,65 -9,37 -22,46 -102,68 -84,25 -115,25 -141,3 -20,-17 -23,-51 -61,-693 -23,-371 -44,-698 -47,-726 l -5,-52 -62,5 c -34,2 -82,0 -107,-4 -45,-9 -58,-21 -126,-122 l -21,-31 -63,50 c -35,28 -74,53 -88,57 -13,3 -61,3 -106,-1 -72,-6 -90,-12 -170,-56 l -90,-50 H 631 c -367,0 -574,-10 -612,-31 -14,-7 -19,-21 -19,-52 0,-63 9,-70 95,-78 56,-6 83,-13 99,-27 22,-21 73,-53 116,-74 18,-8 143,-12 450,-12 l 425,-1 69,28 c 37,15 79,27 91,27 26,0 141,-58 227,-113 55,-35 57,-38 63,-89 14,-129 92,-1327 88,-1361 -4,-25 0,-46 11,-63 16,-23 23,-25 84,-23 49,1 80,-4 115,-20 27,-12 57,-21 66,-21 33,0 61,44 72,111 11,72 72,829 89,1104 7,99 15,209 18,245 l 7,65 40,-3 c 26,-2 49,-12 66,-28 24,-23 43,-31 127,-51 25,-6 80,45 142,132 19,27 47,56 61,64 24,13 33,12 95,-9 58,-19 93,-23 214,-26 80,-1 154,-4 164,-6 14,-3 50,-62 116,-184 194,-363 418,-693 716,-1057 545,-665 1095,-1111 1789,-1452 94,-46 209,-99 257,-119 48,-20 104,-45 125,-56 21,-11 43,-20 50,-20 16,0 419,201 568,283 193,106 424,256 620,402 635,473 1307,1262 1710,2010 l 92,170 44,3 c 24,2 70,15 103,29 76,32 95,24 182,-73 82,-91 146,-134 201,-134 23,0 46,-6 53,-15 27,-32 42,-122 61,-360 11,-137 31,-392 44,-565 27,-337 30,-360 51,-402 12,-24 102,-78 129,-78 15,0 93,41 105,55 12,14 70,799 89,1200 11,218 15,264 28,310 5,17 12,13 52,-33 46,-52 53,-56 148,-79 28,-7 53,13 138,110 75,86 91,91 175,62 36,-13 97,-14 369,-11 179,2 562,5 850,5 l 523,1 37,39 c 20,21 42,46 49,55 8,10 28,16 57,16 69,0 75,5 75,64 0,28 -4,57 -9,65 -6,9 -35,18 -68,22 -32,4 -437,8 -900,8 l -842,1 -71,84 c -39,46 -77,86 -84,89 -35,14 -174,19 -195,7 -13,-6 -24,-10 -26,-8 -2,2 -28,203 -59,448 -51,412 -118,897 -132,963 -3,15 -17,35 -31,44 -23,15 -30,15 -100,-2 -42,-11 -84,-26 -95,-35 -32,-26 -41,-119 -88,-945 -11,-198 -26,-393 -32,-433 l -11,-73 -31,8 c -17,4 -65,8 -106,8 h -74 l -49,-80 c -27,-44 -59,-88 -72,-98 l -24,-17 -48,70 c -51,74 -65,83 -155,95 -28,3 -56,2 -68,-5 -28,-15 -27,-6 20,140 88,276 132,610 120,900 -9,195 -19,273 -55,430 -74,322 -259,687 -464,917 -121,136 -320,279 -525,377 -252,122 -406,157 -691,161 -110,2 -213,1 -230,-1 z m 525,-818 c 263,-61 514,-199 701,-385 282,-282 470,-758 469,-1189 -1,-179 -38,-439 -86,-604 l -17,-58 h -440 c -373,0 -444,2 -470,15 -19,9 -56,49 -89,94 -44,61 -64,81 -88,86 -52,12 -97,-3 -127,-40 -21,-26 -31,-32 -44,-24 -23,12 -24,17 -64,384 -50,455 -100,788 -140,925 -18,63 -36,134 -40,158 -13,78 -95,96 -148,32 -33,-39 -41,-110 -77,-710 -40,-671 -51,-777 -81,-796 -5,-3 -21,6 -33,19 -26,28 -94,51 -120,41 -10,-4 -39,-39 -66,-79 -64,-94 -75,-105 -113,-105 -24,0 -51,16 -112,65 -109,89 -120,90 -242,21 l -99,-56 -459,1 c -253,0 -495,2 -537,5 l -78,6 -95,89 c -89,83 -97,89 -137,89 -24,0 -55,-7 -70,-14 -15,-8 -30,-11 -33,-6 -5,7 -14,79 -70,540 -37,298 -82,595 -101,655 -32,100 -105,236 -138,256 -44,27 -102,25 -120,-3 -11,-18 -24,-185 -55,-723 -46,-784 -49,-825 -64,-825 -15,0 -47,31 -47,45 0,36 -86,64 -145,47 -24,-7 -39,-25 -81,-101 -28,-51 -57,-98 -63,-104 -10,-9 -32,9 -100,81 -83,88 -90,92 -130,92 -56,0 -94,-17 -170,-79 -73,-59 -106,-65 -122,-23 -20,52 -61,257 -75,382 -46,410 32,781 239,1133 143,242 299,387 554,516 125,63 307,125 433,146 124,22 382,22 510,1 216,-35 359,-86 584,-207 181,-98 276,-136 381,-155 144,-25 269,11 542,158 353,189 557,242 908,233 123,-3 184,-10 265,-29 z M 6783,3264 c 18,-9 55,-33 82,-54 62,-46 117,-74 171,-89 42,-11 56,-28 75,-91 7,-27 99,-1250 99,-1332 0,-39 104,-118 155,-118 31,0 62,47 74,111 12,71 72,800 96,1168 17,273 23,325 40,348 11,14 14,10 29,-34 19,-59 83,-133 114,-133 12,0 32,-5 46,-11 22,-10 30,-8 61,15 19,15 60,60 90,101 30,41 63,79 73,84 21,11 70,2 132,-25 29,-12 101,-14 452,-12 414,3 418,3 412,-17 -33,-108 -166,-359 -302,-569 C 8346,2086 7858,1557 7421,1238 7205,1080 6977,945 6682,799 l -263,-131 -157,67 c -551,236 -1033,563 -1405,952 l -97,102 v 158 c 0,87 5,212 10,278 5,66 14,181 20,255 5,74 17,257 25,405 8,149 19,294 25,323 14,64 35,69 45,11 9,-50 88,-139 123,-139 12,0 31,-6 42,-12 31,-20 67,8 133,103 32,46 67,88 78,93 15,7 41,2 97,-17 l 77,-26 565,2 565,2 60,27 c 70,31 114,34 158,12 z m -2704,-78 c 58,-78 182,-163 220,-151 29,9 48,-18 55,-82 7,-62 40,-490 51,-658 l 7,-100 -104,140 c -149,200 -285,418 -388,623 -109,216 -109,217 -73,227 15,3 42,18 60,31 73,55 115,48 172,-30 z"
         id="path4-9" />
    </g>
  </g>
</svg>
